<svg xmlns="http://www.w3.org/2000/svg"  viewBox="0 0 100 100" width="100px" height="100px"><path fill="#f4665c" d="M85.122,68.157c-0.734,3.851-3.851,6.786-7.703,7.336c-6.052,0.917-16.14,2.017-27.511,2.017 c-11.188,0-21.275-1.1-27.511-2.017c-3.851-0.55-6.969-3.485-7.703-7.336C13.961,63.939,13.227,57.703,13.227,50 s0.734-13.939,1.467-18.157c0.734-3.851,3.851-6.786,7.703-7.336c6.052-0.917,16.14-2.017,27.511-2.017s21.275,1.1,27.511,2.017 c3.851,0.55,6.969,3.485,7.703,7.336c0.734,4.218,1.651,10.454,1.651,18.157C86.589,57.703,85.856,63.939,85.122,68.157z"/><path fill="#40396e" d="M49.908,79.011c-12.094,0-22.564-1.274-27.729-2.034c-4.505-0.644-8.108-4.076-8.958-8.539 C12.538,64.509,11.728,58.144,11.728,50s0.81-14.509,1.489-18.415c0.854-4.487,4.457-7.919,8.968-8.563 c4.025-0.61,14.811-2.033,27.723-2.033c11.489,0,21.42,1.106,27.729,2.034c4.505,0.644,8.108,4.076,8.958,8.539 c0.722,4.153,1.677,10.556,1.677,18.438c-0.2,8.423-1.02,14.66-1.672,18.414l-0.004,0.024c-0.851,4.463-4.453,7.896-8.964,8.54 C73.606,77.588,62.822,79.011,49.908,79.011z M49.908,23.989c-12.708,0-23.315,1.399-27.286,2c-3.255,0.465-5.844,2.93-6.454,6.134 C15.513,35.889,14.728,42.07,14.728,50s0.786,14.111,1.445,17.9c0.605,3.181,3.194,5.645,6.437,6.108 c5.089,0.749,15.395,2.002,27.298,2.002c12.709,0,23.316-1.399,27.286-2c3.251-0.465,5.837-2.924,6.452-6.123 c0.521-2.997,1.421-9.299,1.626-17.923c0-7.615-0.93-13.844-1.629-17.865c-0.606-3.18-3.195-5.645-6.438-6.108 C70.991,25.078,61.215,23.989,49.908,23.989z"/><g><path fill="#f2f2f2" d="M42,63V37l22,13L42,63z"/></g></svg>